<mxfile host="app.diagrams.net" modified="2023-12-18T21:12:25.285Z" agent="Mozilla/5.0 (Macintosh; Intel Mac OS X 10_15_7) AppleWebKit/537.36 (KHTML, like Gecko) Chrome/120.0.0.0 Safari/537.36" etag="PvmKF7yHlJb65LdqOVA-" version="22.1.11" type="device">
  <diagram name="Page-1" id="Mz4m56fQcGWXwspc-Hqn">
    <mxGraphModel dx="1363" dy="761" grid="1" gridSize="10" guides="1" tooltips="1" connect="1" arrows="1" fold="1" page="1" pageScale="1" pageWidth="827" pageHeight="1169" math="0" shadow="0">
      <root>
        <mxCell id="0" />
        <mxCell id="1" parent="0" />
        <mxCell id="oyj1UsjpNkuJPIAcJGf3-1" style="edgeStyle=orthogonalEdgeStyle;rounded=0;orthogonalLoop=1;jettySize=auto;html=1;entryX=0.5;entryY=0;entryDx=0;entryDy=0;" edge="1" parent="1" source="oyj1UsjpNkuJPIAcJGf3-2" target="oyj1UsjpNkuJPIAcJGf3-4">
          <mxGeometry relative="1" as="geometry" />
        </mxCell>
        <mxCell id="oyj1UsjpNkuJPIAcJGf3-2" value="" style="ellipse;whiteSpace=wrap;html=1;aspect=fixed;fillColor=#000000;" vertex="1" parent="1">
          <mxGeometry x="265" y="60" width="30" height="30" as="geometry" />
        </mxCell>
        <mxCell id="oyj1UsjpNkuJPIAcJGf3-3" style="edgeStyle=orthogonalEdgeStyle;rounded=0;orthogonalLoop=1;jettySize=auto;html=1;exitX=0;exitY=0;exitDx=0;exitDy=0;" edge="1" parent="1" source="oyj1UsjpNkuJPIAcJGf3-4">
          <mxGeometry relative="1" as="geometry">
            <mxPoint x="220" y="170" as="targetPoint" />
            <Array as="points">
              <mxPoint x="180" y="280" />
              <mxPoint x="130" y="280" />
              <mxPoint x="130" y="120" />
              <mxPoint x="220" y="120" />
            </Array>
          </mxGeometry>
        </mxCell>
        <mxCell id="oyj1UsjpNkuJPIAcJGf3-9" style="edgeStyle=orthogonalEdgeStyle;rounded=0;orthogonalLoop=1;jettySize=auto;html=1;entryX=0;entryY=0.5;entryDx=0;entryDy=0;" edge="1" parent="1" source="oyj1UsjpNkuJPIAcJGf3-4" target="oyj1UsjpNkuJPIAcJGf3-8">
          <mxGeometry relative="1" as="geometry" />
        </mxCell>
        <mxCell id="oyj1UsjpNkuJPIAcJGf3-4" value="Validate" style="swimlane;whiteSpace=wrap;html=1;" vertex="1" parent="1">
          <mxGeometry x="180" y="180" width="200" height="200" as="geometry" />
        </mxCell>
        <mxCell id="oyj1UsjpNkuJPIAcJGf3-5" value="do/check user" style="text;html=1;align=center;verticalAlign=middle;resizable=0;points=[];autosize=1;strokeColor=none;fillColor=none;" vertex="1" parent="oyj1UsjpNkuJPIAcJGf3-4">
          <mxGeometry x="50" y="68" width="100" height="30" as="geometry" />
        </mxCell>
        <mxCell id="oyj1UsjpNkuJPIAcJGf3-6" value="Login" style="text;html=1;align=center;verticalAlign=middle;resizable=0;points=[];autosize=1;strokeColor=none;fillColor=none;" vertex="1" parent="1">
          <mxGeometry x="290" y="108" width="50" height="30" as="geometry" />
        </mxCell>
        <mxCell id="oyj1UsjpNkuJPIAcJGf3-7" value="[not valid]" style="text;html=1;align=center;verticalAlign=middle;resizable=0;points=[];autosize=1;strokeColor=none;fillColor=none;" vertex="1" parent="1">
          <mxGeometry x="50" y="180" width="70" height="30" as="geometry" />
        </mxCell>
        <mxCell id="oyj1UsjpNkuJPIAcJGf3-13" style="edgeStyle=orthogonalEdgeStyle;rounded=0;orthogonalLoop=1;jettySize=auto;html=1;entryX=0;entryY=0.5;entryDx=0;entryDy=0;" edge="1" parent="1" source="oyj1UsjpNkuJPIAcJGf3-8" target="oyj1UsjpNkuJPIAcJGf3-12">
          <mxGeometry relative="1" as="geometry" />
        </mxCell>
        <mxCell id="oyj1UsjpNkuJPIAcJGf3-31" style="edgeStyle=orthogonalEdgeStyle;rounded=0;orthogonalLoop=1;jettySize=auto;html=1;entryX=0.5;entryY=0;entryDx=0;entryDy=0;" edge="1" parent="1" source="oyj1UsjpNkuJPIAcJGf3-8" target="oyj1UsjpNkuJPIAcJGf3-29">
          <mxGeometry relative="1" as="geometry" />
        </mxCell>
        <mxCell id="oyj1UsjpNkuJPIAcJGf3-8" value="Permission request" style="swimlane;whiteSpace=wrap;html=1;" vertex="1" parent="1">
          <mxGeometry x="740" y="180" width="200" height="200" as="geometry" />
        </mxCell>
        <mxCell id="oyj1UsjpNkuJPIAcJGf3-11" value="do/display permission request" style="text;html=1;align=center;verticalAlign=middle;resizable=0;points=[];autosize=1;strokeColor=none;fillColor=none;" vertex="1" parent="oyj1UsjpNkuJPIAcJGf3-8">
          <mxGeometry x="10" y="60" width="180" height="30" as="geometry" />
        </mxCell>
        <mxCell id="oyj1UsjpNkuJPIAcJGf3-10" value="[valid]/User access a feature that requires special access" style="text;html=1;align=center;verticalAlign=middle;resizable=0;points=[];autosize=1;strokeColor=none;fillColor=none;" vertex="1" parent="1">
          <mxGeometry x="395" y="248" width="330" height="30" as="geometry" />
        </mxCell>
        <mxCell id="oyj1UsjpNkuJPIAcJGf3-17" style="edgeStyle=orthogonalEdgeStyle;rounded=0;orthogonalLoop=1;jettySize=auto;html=1;entryX=0;entryY=0.5;entryDx=0;entryDy=0;" edge="1" parent="1" source="oyj1UsjpNkuJPIAcJGf3-12" target="oyj1UsjpNkuJPIAcJGf3-16">
          <mxGeometry relative="1" as="geometry" />
        </mxCell>
        <mxCell id="oyj1UsjpNkuJPIAcJGf3-12" value="System use permission" style="swimlane;whiteSpace=wrap;html=1;" vertex="1" parent="1">
          <mxGeometry x="1130" y="180" width="270" height="200" as="geometry" />
        </mxCell>
        <mxCell id="oyj1UsjpNkuJPIAcJGf3-15" value="do/use the requested app functionality" style="text;html=1;align=center;verticalAlign=middle;resizable=0;points=[];autosize=1;strokeColor=none;fillColor=none;" vertex="1" parent="oyj1UsjpNkuJPIAcJGf3-12">
          <mxGeometry x="20" y="60" width="230" height="30" as="geometry" />
        </mxCell>
        <mxCell id="oyj1UsjpNkuJPIAcJGf3-14" value="[User accept request]" style="text;html=1;align=center;verticalAlign=middle;resizable=0;points=[];autosize=1;strokeColor=none;fillColor=none;" vertex="1" parent="1">
          <mxGeometry x="960" y="248" width="140" height="30" as="geometry" />
        </mxCell>
        <mxCell id="oyj1UsjpNkuJPIAcJGf3-21" style="edgeStyle=orthogonalEdgeStyle;rounded=0;orthogonalLoop=1;jettySize=auto;html=1;entryX=0.5;entryY=0;entryDx=0;entryDy=0;" edge="1" parent="1" source="oyj1UsjpNkuJPIAcJGf3-16" target="oyj1UsjpNkuJPIAcJGf3-20">
          <mxGeometry relative="1" as="geometry" />
        </mxCell>
        <mxCell id="oyj1UsjpNkuJPIAcJGf3-16" value="System access data" style="swimlane;whiteSpace=wrap;html=1;" vertex="1" parent="1">
          <mxGeometry x="1620" y="180" width="390" height="200" as="geometry" />
        </mxCell>
        <mxCell id="oyj1UsjpNkuJPIAcJGf3-19" value="do/use data obtained from app in compliance with privacy regulations" style="text;html=1;align=center;verticalAlign=middle;resizable=0;points=[];autosize=1;strokeColor=none;fillColor=none;" vertex="1" parent="oyj1UsjpNkuJPIAcJGf3-16">
          <mxGeometry y="60" width="390" height="30" as="geometry" />
        </mxCell>
        <mxCell id="oyj1UsjpNkuJPIAcJGf3-18" value="[Accessed app functionality]" style="text;html=1;align=center;verticalAlign=middle;resizable=0;points=[];autosize=1;strokeColor=none;fillColor=none;" vertex="1" parent="1">
          <mxGeometry x="1425" y="248" width="170" height="30" as="geometry" />
        </mxCell>
        <mxCell id="oyj1UsjpNkuJPIAcJGf3-27" style="edgeStyle=orthogonalEdgeStyle;rounded=0;orthogonalLoop=1;jettySize=auto;html=1;entryX=1;entryY=0.5;entryDx=0;entryDy=0;" edge="1" parent="1" source="oyj1UsjpNkuJPIAcJGf3-20" target="oyj1UsjpNkuJPIAcJGf3-24">
          <mxGeometry relative="1" as="geometry" />
        </mxCell>
        <mxCell id="oyj1UsjpNkuJPIAcJGf3-20" value="System privacy safeguarding" style="swimlane;whiteSpace=wrap;html=1;" vertex="1" parent="1">
          <mxGeometry x="1637.5" y="540" width="355" height="200" as="geometry" />
        </mxCell>
        <mxCell id="oyj1UsjpNkuJPIAcJGf3-23" value="do/use access to functionality only for the intended purpose" style="text;html=1;align=center;verticalAlign=middle;resizable=0;points=[];autosize=1;strokeColor=none;fillColor=none;" vertex="1" parent="oyj1UsjpNkuJPIAcJGf3-20">
          <mxGeometry x="8" y="58" width="340" height="30" as="geometry" />
        </mxCell>
        <mxCell id="oyj1UsjpNkuJPIAcJGf3-22" value="[data accessed from app]" style="text;html=1;align=center;verticalAlign=middle;resizable=0;points=[];autosize=1;strokeColor=none;fillColor=none;" vertex="1" parent="1">
          <mxGeometry x="1810" y="430" width="160" height="30" as="geometry" />
        </mxCell>
        <mxCell id="oyj1UsjpNkuJPIAcJGf3-24" value="" style="ellipse;whiteSpace=wrap;html=1;aspect=fixed;" vertex="1" parent="1">
          <mxGeometry x="820" y="620" width="40" height="40" as="geometry" />
        </mxCell>
        <mxCell id="oyj1UsjpNkuJPIAcJGf3-25" value="" style="ellipse;whiteSpace=wrap;html=1;aspect=fixed;fillColor=#000000;" vertex="1" parent="1">
          <mxGeometry x="825" y="625" width="30" height="30" as="geometry" />
        </mxCell>
        <mxCell id="oyj1UsjpNkuJPIAcJGf3-28" value="[User denied request]" style="text;html=1;align=center;verticalAlign=middle;resizable=0;points=[];autosize=1;strokeColor=none;fillColor=none;" vertex="1" parent="1">
          <mxGeometry x="840" y="410" width="140" height="30" as="geometry" />
        </mxCell>
        <mxCell id="oyj1UsjpNkuJPIAcJGf3-30" style="edgeStyle=orthogonalEdgeStyle;rounded=0;orthogonalLoop=1;jettySize=auto;html=1;entryX=0.5;entryY=0;entryDx=0;entryDy=0;" edge="1" parent="1" source="oyj1UsjpNkuJPIAcJGf3-29" target="oyj1UsjpNkuJPIAcJGf3-24">
          <mxGeometry relative="1" as="geometry" />
        </mxCell>
        <mxCell id="oyj1UsjpNkuJPIAcJGf3-29" value="" style="swimlane;startSize=0;" vertex="1" parent="1">
          <mxGeometry x="735" y="470" width="210" height="70" as="geometry" />
        </mxCell>
        <mxCell id="oyj1UsjpNkuJPIAcJGf3-32" value="User experience not enhanced" style="text;html=1;align=center;verticalAlign=middle;resizable=0;points=[];autosize=1;strokeColor=none;fillColor=none;" vertex="1" parent="oyj1UsjpNkuJPIAcJGf3-29">
          <mxGeometry x="10" y="20" width="190" height="30" as="geometry" />
        </mxCell>
        <mxCell id="oyj1UsjpNkuJPIAcJGf3-33" value="[feature used with special access]" style="text;html=1;align=center;verticalAlign=middle;resizable=0;points=[];autosize=1;strokeColor=none;fillColor=none;" vertex="1" parent="1">
          <mxGeometry x="1050" y="608" width="200" height="30" as="geometry" />
        </mxCell>
      </root>
    </mxGraphModel>
  </diagram>
</mxfile>
